<?xml version="1.0" encoding="UTF-8" standalone="no" ?>
<!DOCTYPE svg PUBLIC "-//W3C//DTD SVG 1.1//EN" "http://www.w3.org/Graphics/SVG/1.1/DTD/svg11.dtd">
<svg xmlns="http://www.w3.org/2000/svg" xmlns:xlink="http://www.w3.org/1999/xlink" version="1.1" width="500" height="500" viewBox="0 0 500 500" xml:space="preserve">
<desc>Created with Fabric.js 4.6.0</desc>
<defs>
</defs>
<g transform="matrix(1 0 0 1 241.77 165.68)" id="IHblAfVz8jxmLmG843g1Y"  >
<path style="stroke: rgb(0,0,0); stroke-width: 1; stroke-dasharray: none; stroke-linecap: butt; stroke-dashoffset: 0; stroke-linejoin: miter; stroke-miterlimit: 4; fill: rgb(72,185,65); fill-rule: nonzero; opacity: 1;" vector-effect="non-scaling-stroke"  transform=" translate(0, 0)" d="M 4.94071 -116.27141 L 73.45191 -31.94993000000001 L 33.26746 -31.94993000000001 L 100.46114 80.69828999999999 L 16.139660000000006 80.69828999999999 L 16.139660000000006 116.27140999999999 L -4.940709999999992 116.27140999999999 L -4.940709999999992 80.69828999999999 L -100.46113 80.69828999999999 L -21.409750000000003 -31.94993000000001 L -56.324110000000005 -31.94993000000001 z" stroke-linecap="round" />
</g>
<g transform="matrix(1 0 0 1 202.24 153.49)" id="PKGxYbsJ5P7bJ3gwZocSY"  >
<path style="stroke: rgb(126,210,213); stroke-width: 0; stroke-dasharray: none; stroke-linecap: butt; stroke-dashoffset: 0; stroke-linejoin: miter; stroke-miterlimit: 4; fill: rgb(247,47,58); fill-rule: nonzero; opacity: 1;" vector-effect="non-scaling-stroke"  transform=" translate(-12.19, -12.19)" d="M 12.18709 0 C 18.91436 0 24.37418 5.45982 24.37418 12.18709 C 24.37418 18.91436 18.91436 24.37418 12.18709 24.37418 C 5.45982 24.37418 0 18.91436 0 12.18709 C 0 5.45982 5.45982 0 12.18709 0 z" stroke-linecap="round" />
</g>
<g transform="matrix(1 0 0 1 202.24 137.76)" id="rrmn_egrzYyiGTFqBFJyn"  >
<path style="stroke: rgb(0,0,0); stroke-width: 1; stroke-dasharray: none; stroke-linecap: butt; stroke-dashoffset: 0; stroke-linejoin: miter; stroke-miterlimit: 4; fill: rgb(255,255,255); fill-opacity: 0; fill-rule: nonzero; opacity: 1;" vector-effect="non-scaling-stroke"  transform=" translate(0, 0)" d="M 0 -3.54293 L 0 3.5429199999999996 z" stroke-linecap="round" />
</g>
<g transform="matrix(1 0 0 1 301.71 157.53)" id="qBvIB67_Er8VbycBBc1xO"  >
<path style="stroke: rgb(126,210,213); stroke-width: 0; stroke-dasharray: none; stroke-linecap: butt; stroke-dashoffset: 0; stroke-linejoin: miter; stroke-miterlimit: 4; fill: rgb(247,47,58); fill-rule: nonzero; opacity: 1;" vector-effect="non-scaling-stroke"  transform=" translate(-12.19, -12.19)" d="M 12.18709 0 C 18.91436 0 24.37418 5.45982 24.37418 12.18709 C 24.37418 18.91436 18.91436 24.37418 12.18709 24.37418 C 5.45982 24.37418 0 18.91436 0 12.18709 C 0 5.45982 5.45982 0 12.18709 0 z" stroke-linecap="round" />
</g>
<g transform="matrix(1 0 0 1 301.71 139.53)" id="Ov3jh6nHIRiSxR6rPLnIY"  >
<path style="stroke: rgb(0,0,0); stroke-width: 1; stroke-dasharray: none; stroke-linecap: butt; stroke-dashoffset: 0; stroke-linejoin: miter; stroke-miterlimit: 4; fill: rgb(255,255,255); fill-opacity: 0; fill-rule: nonzero; opacity: 1;" vector-effect="non-scaling-stroke"  transform=" translate(0, 0)" d="M 0 5.80975 L 0 -5.80975 z" stroke-linecap="round" />
</g>
<g transform="matrix(1 0 0 1 271.35 115.52)" id="_b-Q9fJNQMqBai8_feILw"  >
<path style="stroke: rgb(126,210,213); stroke-width: 0; stroke-dasharray: none; stroke-linecap: butt; stroke-dashoffset: 0; stroke-linejoin: miter; stroke-miterlimit: 4; fill: rgb(255,243,18); fill-rule: nonzero; opacity: 1;" vector-effect="non-scaling-stroke"  transform=" translate(-12.19, -12.19)" d="M 12.18709 0 C 18.91436 0 24.37418 5.45982 24.37418 12.18709 C 24.37418 18.91436 18.91436 24.37418 12.18709 24.37418 C 5.45982 24.37418 0 18.91436 0 12.18709 C 0 5.45982 5.45982 0 12.18709 0 z" stroke-linecap="round" />
</g>
<g transform="matrix(1 0 0 1 182.4 225.17)" id="nSbLKSkePX4NJX-WN00GU"  >
<path style="stroke: rgb(126,210,213); stroke-width: 0; stroke-dasharray: none; stroke-linecap: butt; stroke-dashoffset: 0; stroke-linejoin: miter; stroke-miterlimit: 4; fill: rgb(244,39,157); fill-rule: nonzero; opacity: 1;" vector-effect="non-scaling-stroke"  transform=" translate(-12.19, -12.19)" d="M 12.18709 0 C 18.91436 0 24.37418 5.45982 24.37418 12.18709 C 24.37418 18.91436 18.91436 24.37418 12.18709 24.37418 C 5.45982 24.37418 0 18.91436 0 12.18709 C 0 5.45982 5.45982 0 12.18709 0 z" stroke-linecap="round" />
</g>
<g transform="matrix(1 0 0 1 268.19 169.71)" id="tmATFB37jySw_pUocSmvX"  >
<path style="stroke: rgb(126,210,213); stroke-width: 0; stroke-dasharray: none; stroke-linecap: butt; stroke-dashoffset: 0; stroke-linejoin: miter; stroke-miterlimit: 4; fill: rgb(49,168,247); fill-rule: nonzero; opacity: 1;" vector-effect="non-scaling-stroke"  transform=" translate(-12.19, -12.19)" d="M 12.18709 0 C 18.91436 0 24.37418 5.45982 24.37418 12.18709 C 24.37418 18.91436 18.91436 24.37418 12.18709 24.37418 C 5.45982 24.37418 0 18.91436 0 12.18709 C 0 5.45982 5.45982 0 12.18709 0 z" stroke-linecap="round" />
</g>
<g transform="matrix(1 0 0 1 307.66 229.03)" id="Ntoe7iDTyZPFjy7XZd44K"  >
<path style="stroke: rgb(126,210,213); stroke-width: 0; stroke-dasharray: none; stroke-linecap: butt; stroke-dashoffset: 0; stroke-linejoin: miter; stroke-miterlimit: 4; fill: rgb(255,243,18); fill-rule: nonzero; opacity: 1;" vector-effect="non-scaling-stroke"  transform=" translate(-12.19, -12.19)" d="M 12.18709 0 C 18.91436 0 24.37418 5.45982 24.37418 12.18709 C 24.37418 18.91436 18.91436 24.37418 12.18709 24.37418 C 5.45982 24.37418 0 18.91436 0 12.18709 C 0 5.45982 5.45982 0 12.18709 0 z" stroke-linecap="round" />
</g>
<g transform="matrix(1 0 0 1 231.89 103.33)" id="fvAptWiTS6QKSaimle7iO"  >
<path style="stroke: rgb(126,210,213); stroke-width: 0; stroke-dasharray: none; stroke-linecap: butt; stroke-dashoffset: 0; stroke-linejoin: miter; stroke-miterlimit: 4; fill: rgb(49,168,247); fill-rule: nonzero; opacity: 1;" vector-effect="non-scaling-stroke"  transform=" translate(-12.19, -12.19)" d="M 12.18709 0 C 18.91436 0 24.37418 5.45982 24.37418 12.18709 C 24.37418 18.91436 18.91436 24.37418 12.18709 24.37418 C 5.45982 24.37418 0 18.91436 0 12.18709 C 0 5.45982 5.45982 0 12.18709 0 z" stroke-linecap="round" />
</g>
<g transform="matrix(1 0 0 1 237.81 143.51)" id="6lrO3IpLYUV89tdsZJhic"  >
<path style="stroke: rgb(126,210,213); stroke-width: 0; stroke-dasharray: none; stroke-linecap: butt; stroke-dashoffset: 0; stroke-linejoin: miter; stroke-miterlimit: 4; fill: rgb(95,247,49); fill-rule: nonzero; opacity: 1;" vector-effect="non-scaling-stroke"  transform=" translate(-12.19, -12.19)" d="M 12.18709 0 C 18.91436 0 24.37418 5.45982 24.37418 12.18709 C 24.37418 18.91436 18.91436 24.37418 12.18709 24.37418 C 5.45982 24.37418 0 18.91436 0 12.18709 C 0 5.45982 5.45982 0 12.18709 0 z" stroke-linecap="round" />
</g>
<g transform="matrix(1 0 0 1 222.2 188.95)" id="taEveq0lvv5x-DJg4LCMw"  >
<path style="stroke: rgb(126,210,213); stroke-width: 0; stroke-dasharray: none; stroke-linecap: butt; stroke-dashoffset: 0; stroke-linejoin: miter; stroke-miterlimit: 4; fill: rgb(252,134,29); fill-rule: nonzero; opacity: 1;" vector-effect="non-scaling-stroke"  transform=" translate(-12.19, -12.19)" d="M 12.18709 0 C 18.91436 0 24.37418 5.45982 24.37418 12.18709 C 24.37418 18.91436 18.91436 24.37418 12.18709 24.37418 C 5.45982 24.37418 0 18.91436 0 12.18709 C 0 5.45982 5.45982 0 12.18709 0 z" stroke-linecap="round" />
</g>
<g transform="matrix(1 0 0 1 271.35 209.12)" id="nW-_wk_3l0ox_Zd1Qe_g9"  >
<path style="stroke: rgb(126,210,213); stroke-width: 0; stroke-dasharray: none; stroke-linecap: butt; stroke-dashoffset: 0; stroke-linejoin: miter; stroke-miterlimit: 4; fill: rgb(49,168,247); fill-rule: nonzero; opacity: 1;" vector-effect="non-scaling-stroke"  transform=" translate(-12.19, -12.19)" d="M 12.18709 0 C 18.91436 0 24.37418 5.45982 24.37418 12.18709 C 24.37418 18.91436 18.91436 24.37418 12.18709 24.37418 C 5.45982 24.37418 0 18.91436 0 12.18709 C 0 5.45982 5.45982 0 12.18709 0 z" stroke-linecap="round" />
</g>
<g transform="matrix(1 0 0 1 231.89 225.17)" id="bW4kYAYncJU6wuXEUPZ2U"  >
<path style="stroke: rgb(126,210,213); stroke-width: 0; stroke-dasharray: none; stroke-linecap: butt; stroke-dashoffset: 0; stroke-linejoin: miter; stroke-miterlimit: 4; fill: rgb(128,244,39); fill-rule: nonzero; opacity: 1;" vector-effect="non-scaling-stroke"  transform=" translate(-12.19, -12.19)" d="M 12.18709 0 C 18.91436 0 24.37418 5.45982 24.37418 12.18709 C 24.37418 18.91436 18.91436 24.37418 12.18709 24.37418 C 5.45982 24.37418 0 18.91436 0 12.18709 C 0 5.45982 5.45982 0 12.18709 0 z" stroke-linecap="round" />
</g>
<g transform="matrix(0.67 0 0 1.19 246.91 264.42)" id="B-vrqdCCf6Aq2tQl3j20M"  >
<path style="stroke: rgb(93,56,249); stroke-width: 0; stroke-dasharray: none; stroke-linecap: butt; stroke-dashoffset: 0; stroke-linejoin: miter; stroke-miterlimit: 4; fill: rgb(202,120,47); fill-rule: nonzero; opacity: 1;" vector-effect="non-scaling-stroke"  transform=" translate(0, 0)" d="M -18.24562 -13.0487 C -18.24562 -15.91888 -14.113389999999999 -18.24561 -9.01602 -18.24561 L 9.016 -18.24561 L 9.016 -18.24561 C 14.11337 -18.24561 18.2456 -15.918869999999998 18.2456 -13.0487 L 18.2456 13.0487 L 18.2456 13.0487 C 18.2456 15.91888 14.11337 18.24561 9.016 18.24561 L -9.01602 18.24561 L -9.01602 18.24561 C -14.113389999999999 18.24561 -18.24562 15.918869999999998 -18.24562 13.0487 z" stroke-linecap="round" />
</g>
<g transform="matrix(1 0 0 1 246.91 45.87)" id="ye-Iqv6E7oqYKIT8LK-7z"  >
<path style="stroke: rgb(0,0,0); stroke-width: 1; stroke-dasharray: none; stroke-linecap: butt; stroke-dashoffset: 0; stroke-linejoin: miter; stroke-miterlimit: 4; fill: rgb(255,255,255); fill-opacity: 0; fill-rule: nonzero; opacity: 1;" vector-effect="non-scaling-stroke"  transform=" translate(0, 0)" d="M 0 3.91248 L 0 -3.91248 L 0 3.91248" stroke-linecap="round" />
</g>
<g transform="matrix(1.12 0 0 1.12 246.91 33.95)" id="MUi77XhHsJlwvwlTh6_-2"  >
<path style="stroke: rgb(114,192,243); stroke-width: 0; stroke-dasharray: none; stroke-linecap: butt; stroke-dashoffset: 0; stroke-linejoin: miter; stroke-miterlimit: 4; fill: rgb(0,0,0); fill-rule: nonzero; opacity: 1;" vector-effect="non-scaling-stroke"  transform=" translate(-14.02, -13.33)" d="M 14.01955 0 L 18.17855 9.01664 L 28.03901 10.185730000000001 L 20.748890000000003 16.927500000000002 L 22.68389 26.66668 L 14.019500000000003 21.81669 L 5.355110000000003 26.66668 L 7.290110000000004 16.927500000000002 L -0.000009999999996068709 10.185730000000003 L 9.860450000000004 9.016640000000002 z" stroke-linecap="round" />
</g>
<g transform="matrix(0.92 0 0 0.92 246.91 33.95)" id="rfiDNsn3vEcx8S9plu8WZ"  >
<path style="stroke: rgb(114,192,243); stroke-width: 0; stroke-dasharray: none; stroke-linecap: butt; stroke-dashoffset: 0; stroke-linejoin: miter; stroke-miterlimit: 4; fill: rgb(255,243,18); fill-rule: nonzero; opacity: 1;" vector-effect="non-scaling-stroke"  transform=" translate(-14.02, -13.33)" d="M 14.01955 0 L 18.17855 9.01664 L 28.03901 10.185730000000001 L 20.748890000000003 16.927500000000002 L 22.68389 26.66668 L 14.019500000000003 21.81669 L 5.355110000000003 26.66668 L 7.290110000000004 16.927500000000002 L -0.000009999999996068709 10.185730000000003 L 9.860450000000004 9.016640000000002 z" stroke-linecap="round" />
</g>
<g transform="matrix(1.6 0 0 1.6 231.87 103.65)" id="6Vsp3usfsYg1w26wqet2y"  >
<path style="stroke: rgb(113,150,62); stroke-width: 0; stroke-dasharray: none; stroke-linecap: butt; stroke-dashoffset: 0; stroke-linejoin: miter; stroke-miterlimit: 4; fill: rgb(109,180,227); fill-rule: nonzero; opacity: 1;" vector-effect="non-scaling-stroke"  transform=" translate(0, 0)" d="M 0 -6.05187 C 3.34063 -6.05187 6.05187 -3.34063 6.05187 0 C 6.05187 3.34063 3.34063 6.05187 0 6.05187 C -3.34063 6.05187 -6.05187 3.34063 -6.05187 0 C -6.05187 -3.34063 -3.34063 -6.05187 0 -6.05187 z" stroke-linecap="round" />
</g>
<g transform="matrix(1.56 0 0 1.56 268.63 170.11)" id="m3_CGibccNlHFcCW0t-uU"  >
<path style="stroke: rgb(113,150,62); stroke-width: 0; stroke-dasharray: none; stroke-linecap: butt; stroke-dashoffset: 0; stroke-linejoin: miter; stroke-miterlimit: 4; fill: rgb(108,185,236); fill-rule: nonzero; opacity: 1;" vector-effect="non-scaling-stroke"  transform=" translate(0, 0)" d="M 0 -6.05187 C 3.34063 -6.05187 6.05187 -3.34063 6.05187 0 C 6.05187 3.34063 3.34063 6.05187 0 6.05187 C -3.34063 6.05187 -6.05187 3.34063 -6.05187 0 C -6.05187 -3.34063 -3.34063 -6.05187 0 -6.05187 z" stroke-linecap="round" />
</g>
<g transform="matrix(1.62 0 0 1.62 237.81 143.51)" id="j9Sok0xF3EKvJEB72abgN"  >
<path style="stroke: rgb(113,150,62); stroke-width: 0; stroke-dasharray: none; stroke-linecap: butt; stroke-dashoffset: 0; stroke-linejoin: miter; stroke-miterlimit: 4; fill: rgb(68,227,68); fill-rule: nonzero; opacity: 1;" vector-effect="non-scaling-stroke"  transform=" translate(0, 0)" d="M 0 -6.05187 C 3.34063 -6.05187 6.05187 -3.34063 6.05187 0 C 6.05187 3.34063 3.34063 6.05187 0 6.05187 C -3.34063 6.05187 -6.05187 3.34063 -6.05187 0 C -6.05187 -3.34063 -3.34063 -6.05187 0 -6.05187 z" stroke-linecap="round" />
</g>
<g transform="matrix(1.67 0 0 1.67 270.98 115.92)" id="_DKl10vdnGp_NDDKzZK_X"  >
<path style="stroke: rgb(113,150,62); stroke-width: 0; stroke-dasharray: none; stroke-linecap: butt; stroke-dashoffset: 0; stroke-linejoin: miter; stroke-miterlimit: 4; fill: rgb(234,226,71); fill-rule: nonzero; opacity: 1;" vector-effect="non-scaling-stroke"  transform=" translate(0, 0)" d="M 0 -6.05187 C 3.34063 -6.05187 6.05187 -3.34063 6.05187 0 C 6.05187 3.34063 3.34063 6.05187 0 6.05187 C -3.34063 6.05187 -6.05187 3.34063 -6.05187 0 C -6.05187 -3.34063 -3.34063 -6.05187 0 -6.05187 z" stroke-linecap="round" />
</g>
<g transform="matrix(1.65 0 0 1.65 221.9 188.77)" id="DogDmkAdThZ0oa4-GVNGL"  >
<path style="stroke: rgb(113,150,62); stroke-width: 0; stroke-dasharray: none; stroke-linecap: butt; stroke-dashoffset: 0; stroke-linejoin: miter; stroke-miterlimit: 4; fill: rgb(239,158,86); fill-rule: nonzero; opacity: 1;" vector-effect="non-scaling-stroke"  transform=" translate(0, 0)" d="M 0 -6.05187 C 3.34063 -6.05187 6.05187 -3.34063 6.05187 0 C 6.05187 3.34063 3.34063 6.05187 0 6.05187 C -3.34063 6.05187 -6.05187 3.34063 -6.05187 0 C -6.05187 -3.34063 -3.34063 -6.05187 0 -6.05187 z" stroke-linecap="round" />
</g>
<g transform="matrix(1.56 0 0 1.56 271.35 209.12)" id="9VPxszhHG3t6GscK5NFMi"  >
<path style="stroke: rgb(113,150,62); stroke-width: 0; stroke-dasharray: none; stroke-linecap: butt; stroke-dashoffset: 0; stroke-linejoin: miter; stroke-miterlimit: 4; fill: rgb(108,185,236); fill-rule: nonzero; opacity: 1;" vector-effect="non-scaling-stroke"  transform=" translate(0, 0)" d="M 0 -6.05187 C 3.34063 -6.05187 6.05187 -3.34063 6.05187 0 C 6.05187 3.34063 3.34063 6.05187 0 6.05187 C -3.34063 6.05187 -6.05187 3.34063 -6.05187 0 C -6.05187 -3.34063 -3.34063 -6.05187 0 -6.05187 z" stroke-linecap="round" />
</g>
<g transform="matrix(1.62 0 0 1.62 232 225.17)" id="GMFARlta5syGHkWoXc8se"  >
<path style="stroke: rgb(113,150,62); stroke-width: 0; stroke-dasharray: none; stroke-linecap: butt; stroke-dashoffset: 0; stroke-linejoin: miter; stroke-miterlimit: 4; fill: rgb(68,227,68); fill-rule: nonzero; opacity: 1;" vector-effect="non-scaling-stroke"  transform=" translate(0, 0)" d="M 0 -6.05187 C 3.34063 -6.05187 6.05187 -3.34063 6.05187 0 C 6.05187 3.34063 3.34063 6.05187 0 6.05187 C -3.34063 6.05187 -6.05187 3.34063 -6.05187 0 C -6.05187 -3.34063 -3.34063 -6.05187 0 -6.05187 z" stroke-linecap="round" />
</g>
<g transform="matrix(1.67 0 0 1.67 307.66 229.03)" id="d2VIVgjfpA_d1mCag3wGh"  >
<path style="stroke: rgb(113,150,62); stroke-width: 0; stroke-dasharray: none; stroke-linecap: butt; stroke-dashoffset: 0; stroke-linejoin: miter; stroke-miterlimit: 4; fill: rgb(234,226,71); fill-rule: nonzero; opacity: 1;" vector-effect="non-scaling-stroke"  transform=" translate(0, 0)" d="M 0 -6.05187 C 3.34063 -6.05187 6.05187 -3.34063 6.05187 0 C 6.05187 3.34063 3.34063 6.05187 0 6.05187 C -3.34063 6.05187 -6.05187 3.34063 -6.05187 0 C -6.05187 -3.34063 -3.34063 -6.05187 0 -6.05187 z" stroke-linecap="round" />
</g>
<g transform="matrix(1.62 0 0 1.62 182.4 225.17)" id="ajoryENCpaZZiGwJtAfkq"  >
<path style="stroke: rgb(113,150,62); stroke-width: 0; stroke-dasharray: none; stroke-linecap: butt; stroke-dashoffset: 0; stroke-linejoin: miter; stroke-miterlimit: 4; fill: rgb(248,117,192); fill-rule: nonzero; opacity: 1;" vector-effect="non-scaling-stroke"  transform=" translate(0, 0)" d="M 0 -6.05187 C 3.34063 -6.05187 6.05187 -3.34063 6.05187 0 C 6.05187 3.34063 3.34063 6.05187 0 6.05187 C -3.34063 6.05187 -6.05187 3.34063 -6.05187 0 C -6.05187 -3.34063 -3.34063 -6.05187 0 -6.05187 z" stroke-linecap="round" />
</g>
</svg>